<?xml version="1.0" standalone="no"?>
<!DOCTYPE svg PUBLIC "-//W3C//DTD SVG 20010904//EN"
 "http://www.w3.org/TR/2001/REC-SVG-20010904/DTD/svg10.dtd">
<svg version="1.0" xmlns="http://www.w3.org/2000/svg"
 width="105.000000pt" height="86.000000pt" viewBox="0 0 105.000000 86.000000"
 preserveAspectRatio="xMidYMid meet">

<g transform="translate(0.000000,86.000000) scale(0.100000,-0.100000)"
fill="#000000" stroke="none">
<path d="M401 834 c18 -19 20 -26 9 -39 -11 -13 -8 -15 21 -15 19 0 46 7 62
14 23 13 27 13 27 0 0 -8 -8 -14 -19 -14 -39 0 -81 -22 -81 -42 0 -15 5 -18
17 -14 9 4 20 1 24 -5 5 -9 15 -6 36 9 24 17 31 18 46 7 9 -7 17 -18 17 -24 0
-8 -6 -7 -16 4 -13 12 -19 14 -28 4 -8 -8 -8 -13 2 -16 6 -3 12 -12 12 -20 0
-9 6 -13 15 -10 8 4 17 2 20 -3 6 -10 -8 -14 -34 -10 -9 1 -12 -4 -7 -15 5
-13 2 -16 -11 -10 -30 12 -93 15 -93 5 0 -5 -6 -8 -12 -6 -7 1 -10 1 -5 -1 4
-3 7 -11 7 -19 0 -15 9 -17 82 -16 61 0 68 -11 17 -28 -22 -8 -45 -22 -50 -32
-7 -12 -21 -18 -46 -18 -21 0 -42 -7 -52 -17 -9 -11 -31 -18 -53 -19 -40 -1
-46 4 -26 24 9 9 2 12 -33 13 -40 0 -42 1 -21 12 17 8 22 17 19 34 -2 12 1 24
7 26 16 6 2 18 -23 20 -14 1 -21 8 -21 23 0 14 -9 25 -27 32 -41 16 -130 23
-159 12 l-25 -10 2 -175 c1 -96 5 -175 10 -175 5 0 9 -7 9 -16 0 -8 5 -12 10
-9 6 3 10 1 10 -4 0 -6 -6 -11 -14 -11 -20 0 -23 -23 -25 -154 l-2 -116 525 0
526 0 0 65 c0 49 -3 65 -14 65 -8 0 -99 -7 -203 -16 -161 -13 -194 -19 -230
-39 -36 -20 -52 -23 -100 -18 -70 7 -79 13 -89 61 -4 20 -8 40 -9 45 -2 4 -3
14 -4 22 0 8 -15 29 -33 45 -58 56 -108 25 -108 -68 0 -37 -3 -43 -17 -38 -10
3 -51 13 -91 22 l-73 16 7 31 c13 63 23 75 23 30 1 -33 5 -43 22 -48 28 -9 34
-1 30 47 -3 42 25 122 40 112 7 -4 141 13 145 19 1 1 -1 18 -3 38 -4 33 -7 35
-36 32 -26 -3 -28 -1 -12 6 11 5 41 10 67 10 40 1 52 -4 85 -34 33 -30 45 -35
88 -35 47 0 48 -1 25 -13 -31 -16 -35 -35 -16 -81 14 -33 39 -51 34 -24 -2 8
8 11 30 9 38 -3 39 5 11 60 l-20 40 113 -5 c266 -11 259 -10 274 -31 8 -10 14
-30 14 -43 0 -15 7 -26 19 -29 11 -3 22 -12 25 -22 2 -9 4 73 4 182 -1 111 -5
197 -10 197 -5 0 -7 4 -4 9 3 5 -1 14 -9 21 -21 18 -19 29 5 23 18 -5 20 0 20
50 0 61 -12 73 -56 56 -15 -5 -29 -7 -32 -4 -3 3 1 5 8 5 9 0 8 5 -5 13 -14
11 -15 16 -5 22 8 5 18 2 26 -9 6 -9 15 -13 18 -8 3 6 -1 12 -9 16 -25 9 -17
21 15 22 26 1 30 -2 24 -19 -4 -13 -2 -17 5 -13 6 4 11 18 11 32 l0 25 -336
-1 -336 -2 23 -24z m44 -4 c-3 -5 -10 -10 -16 -10 -5 0 -9 5 -9 10 0 6 7 10
16 10 8 0 12 -4 9 -10z m219 -106 c23 -9 20 -23 -4 -17 -11 3 -20 9 -20 14 0
11 3 11 24 3z m-54 -48 c0 -3 -4 -8 -10 -11 -5 -3 -10 -1 -10 4 0 6 5 11 10
11 6 0 10 -2 10 -4z m163 -42 c-3 -8 -13 -14 -23 -14 -11 0 -22 -4 -25 -10
-11 -17 -25 -11 -25 12 0 12 3 18 6 15 4 -3 16 0 26 8 24 16 49 9 41 -11z
m230 -57 c-2 -4 -9 -5 -14 -1 -5 3 -7 10 -4 15 4 5 0 9 -7 9 -9 0 -9 3 2 10
11 7 17 5 21 -8 4 -9 4 -20 2 -25z m-442 -28 c-13 -5 -21 -16 -19 -26 4 -25
-23 -26 -52 -3 l-25 20 30 0 c17 0 39 7 49 15 10 8 24 12 29 8 6 -3 0 -10 -12
-14z m-468 -9 c-3 -11 0 -20 6 -20 6 0 11 -7 11 -16 0 -10 -6 -14 -15 -11 -21
9 -26 -5 -35 -86 l-7 -72 -2 62 c0 34 -5 64 -9 67 -4 2 -7 -19 -6 -47 l2 -52
-10 44 c-13 59 -3 106 29 131 32 25 43 25 36 0z m777 -20 c0 -5 -4 -10 -9 -10
-6 0 -13 5 -16 10 -3 6 1 10 9 10 9 0 16 -4 16 -10z m-680 -10 c0 -5 -2 -10
-4 -10 -3 0 -8 5 -11 10 -3 6 -1 10 4 10 6 0 11 -4 11 -10z m394 -27 c-2 -20
0 -21 18 -12 11 6 22 8 26 5 3 -3 0 -6 -7 -6 -7 0 -10 -4 -6 -9 3 -6 17 -6 35
0 22 8 42 7 80 -4 46 -14 51 -13 60 2 8 13 10 14 11 1 1 -8 1 -18 0 -22 0 -5
6 -8 14 -8 8 0 15 -5 15 -10 0 -6 -10 -8 -22 -5 -13 3 -66 9 -119 14 -76 6
-102 12 -127 31 -28 20 -29 25 -15 35 25 18 40 14 37 -12z m-34 -33 c0 -5 -4
-10 -10 -10 -5 0 -10 5 -10 10 0 6 5 10 10 10 6 0 10 -4 10 -10z m427 -16 c-3
-3 -12 -4 -19 -1 -8 3 -5 6 6 6 11 1 17 -2 13 -5z m-912 -242 c-7 -7 -22 62
-16 78 3 8 9 -5 13 -29 4 -25 6 -47 3 -49z"/>
<path d="M258 313 c6 -2 18 -2 25 0 6 3 1 5 -13 5 -14 0 -19 -2 -12 -5z"/>
<path d="M728 233 c57 -2 147 -2 200 0 53 1 7 3 -103 3 -110 0 -154 -2 -97 -3z"/>
<path d="M844 212 c-6 -4 -7 -17 -3 -32 7 -24 7 -24 8 -2 1 19 6 22 41 22 31
0 40 -4 40 -17 0 -9 3 -14 6 -10 3 3 3 15 -1 26 -5 16 -15 21 -43 21 -20 0
-42 -4 -48 -8z"/>
</g>
</svg>
